# Blender v2.93.1 OBJ File: 'bylamp.blend'
# www.blender.org
mtllib bylamp.mtl
o Cylinder_Cylinder.001
v 0.000000 0.001440 -0.152651
v 0.000000 6.500518 -0.152651
v 0.107941 0.001440 -0.107941
v 0.107941 6.500518 -0.107941
v 0.152651 0.001440 0.000000
v 0.152651 6.500518 0.000000
v 0.107941 0.001440 0.107941
v 0.107941 6.500518 0.107941
v -0.000000 0.001440 0.152651
v -0.000000 6.500518 0.152651
v -0.107941 0.001440 0.107941
v -0.107941 6.500518 0.107941
v -0.152651 0.001440 -0.000000
v -0.152651 6.500518 -0.000000
v -0.107941 0.001440 -0.107941
v -0.107941 6.500518 -0.107941
vt 1.000000 1.000000
vt 0.875000 0.500000
vt 1.000000 0.500000
vt 0.875000 1.000000
vt 0.750000 0.500000
vt 0.750000 1.000000
vt 0.625000 0.500000
vt 0.625000 1.000000
vt 0.500000 0.500000
vt 0.500000 1.000000
vt 0.375000 0.500000
vt 0.375000 1.000000
vt 0.250000 0.500000
vt 0.490000 0.250000
vt 0.250000 0.490000
vt 0.010000 0.250000
vt 0.250000 1.000000
vt 0.125000 0.500000
vt 0.125000 1.000000
vt 0.000000 0.500000
vt 0.919706 0.080294
vt 0.580294 0.080294
vt 0.580294 0.419706
vt 0.419706 0.419706
vt 0.080294 0.419706
vt 0.080294 0.080294
vt 0.250000 0.010000
vt 0.419706 0.080294
vt 0.000000 1.000000
vt 0.750000 0.490000
vt 0.919706 0.419706
vt 0.990000 0.250000
vt 0.750000 0.010000
vt 0.510000 0.250000
vn 0.3827 0.0000 -0.9239
vn 0.9239 0.0000 -0.3827
vn 0.9239 0.0000 0.3827
vn 0.3827 0.0000 0.9239
vn -0.3827 0.0000 0.9239
vn -0.9239 0.0000 0.3827
vn 0.0000 1.0000 0.0000
vn -0.9239 0.0000 -0.3827
vn -0.3827 0.0000 -0.9239
vn 0.0000 -1.0000 0.0000
usemtl None
s off
f 2/1/1 3/2/1 1/3/1
f 4/4/2 5/5/2 3/2/2
f 6/6/3 7/7/3 5/5/3
f 8/8/4 9/9/4 7/7/4
f 10/10/5 11/11/5 9/9/5
f 12/12/6 13/13/6 11/11/6
f 6/14/7 2/15/7 14/16/7
f 14/17/8 15/18/8 13/13/8
f 16/19/9 1/20/9 15/18/9
f 7/21/10 11/22/10 15/23/10
f 2/1/1 4/4/1 3/2/1
f 4/4/2 6/6/2 5/5/2
f 6/6/3 8/8/3 7/7/3
f 8/8/4 10/10/4 9/9/4
f 10/10/5 12/12/5 11/11/5
f 12/12/6 14/17/6 13/13/6
f 6/14/7 4/24/7 2/15/7
f 2/15/7 16/25/7 14/16/7
f 14/16/7 12/26/7 10/27/7
f 10/27/7 8/28/7 14/16/7
f 8/28/7 6/14/7 14/16/7
f 14/17/8 16/19/8 15/18/8
f 16/19/9 2/29/9 1/20/9
f 15/23/10 1/30/10 3/31/10
f 3/31/10 5/32/10 7/21/10
f 7/21/10 9/33/10 11/22/10
f 11/22/10 13/34/10 15/23/10
f 15/23/10 3/31/10 7/21/10
o Icosphere
v 0.000000 6.039549 0.000000
v 0.362962 6.316825 0.263705
v -0.138637 6.316825 0.426687
v -0.448645 6.316827 0.000000
v -0.138637 6.316825 -0.426687
v 0.362962 6.316825 -0.263705
v 0.138637 6.765477 0.426687
v -0.362962 6.765477 0.263705
v -0.362962 6.765477 -0.263705
v 0.138637 6.765477 -0.426687
v 0.448645 6.765475 0.000000
v 0.000000 7.042752 0.000000
v -0.081488 6.114461 0.250798
v 0.213342 6.114461 0.155001
v 0.131855 6.277440 0.405801
v 0.426686 6.277441 0.000000
v 0.213342 6.114461 -0.155001
v -0.263707 6.114463 0.000000
v -0.345197 6.277441 0.250799
v -0.081488 6.114461 -0.250798
v -0.345197 6.277441 -0.250799
v 0.131855 6.277440 -0.405801
v 0.477052 6.541151 0.155001
v 0.477052 6.541151 -0.155001
v 0.000000 6.541151 0.501601
v 0.294834 6.541151 0.405804
v -0.477052 6.541151 0.155001
v -0.294834 6.541151 0.405804
v -0.294834 6.541151 -0.405804
v -0.477052 6.541151 -0.155001
v 0.294834 6.541151 -0.405804
v 0.000000 6.541151 -0.501601
v 0.345197 6.804861 0.250799
v -0.131855 6.804862 0.405801
v -0.426686 6.804861 0.000000
v -0.131855 6.804862 -0.405801
v 0.345197 6.804861 -0.250799
v 0.081488 6.967840 0.250798
v 0.263707 6.967839 0.000000
v -0.213342 6.967840 0.155001
v -0.213342 6.967840 -0.155001
v 0.081488 6.967840 -0.250798
vt 0.181819 0.000000
vt 0.136365 0.078731
vt 0.227273 0.078731
vt 0.272728 0.157461
vt 0.363637 0.157461
vt 0.318182 0.078731
vt 0.909091 0.000000
vt 0.863636 0.078731
vt 0.954545 0.078731
vt 0.727273 0.000000
vt 0.681818 0.078731
vt 0.772727 0.078731
vt 0.545455 0.000000
vt 0.500000 0.078731
vt 0.590909 0.078731
vt 0.318182 0.236191
vt 0.090910 0.157461
vt 0.136365 0.236191
vt 0.181819 0.157461
vt 0.818182 0.157461
vt 0.863636 0.236191
vt 0.909091 0.157461
vt 0.636364 0.157461
vt 0.681818 0.236191
vt 0.727273 0.157461
vt 0.454546 0.157461
vt 0.500000 0.236191
vt 0.545455 0.157461
vt 0.227273 0.236191
vt 0.045455 0.236191
vt 0.772727 0.236191
vt 0.590909 0.236191
vt 0.409092 0.236191
vt 0.181819 0.314921
vt 0.227273 0.393651
vt 0.272728 0.314921
vt 0.000000 0.314921
vt 0.045455 0.393651
vt 0.090910 0.314921
vt 0.727273 0.314921
vt 0.772727 0.393651
vt 0.818182 0.314921
vt 0.545455 0.314921
vt 0.590909 0.393651
vt 0.636364 0.314921
vt 0.363637 0.314921
vt 0.409092 0.393651
vt 0.454546 0.314921
vt 0.454546 0.472382
vt 0.500000 0.393651
vt 0.636364 0.472382
vt 0.681818 0.393651
vt 0.818182 0.472382
vt 0.863636 0.393651
vt 0.909091 0.314921
vt 0.090910 0.472382
vt 0.136365 0.393651
vt 0.272728 0.472382
vt 0.318182 0.393651
vt 0.954545 0.236191
vt 1.000000 0.157461
vt 0.409092 0.078731
vt 0.363637 0.000000
vn -0.1024 0.9435 -0.3151
vn -0.7002 0.6617 -0.2680
vn 0.2680 0.9435 -0.1947
vn 0.2680 0.9435 0.1947
vn -0.1024 0.9435 0.3151
vn -0.9050 0.3304 -0.2680
vn -0.0247 0.3304 -0.9435
vn 0.8897 0.3304 -0.3151
vn 0.5746 0.3304 0.7488
vn -0.5346 0.3304 0.7779
vn -0.8026 0.1256 -0.5831
vn 0.3066 0.1256 -0.9435
vn 0.9921 0.1256 0.0000
vn 0.3066 0.1256 0.9435
vn -0.8026 0.1256 0.5831
vn -0.4089 -0.6617 -0.6284
vn 0.4713 -0.6617 -0.5831
vn 0.7002 -0.6617 0.2680
vn -0.0385 -0.6617 0.7488
vn -0.7240 -0.6617 0.1947
vn -0.2680 -0.9435 0.1947
vn -0.4911 -0.7947 0.3568
vn -0.4089 -0.6617 0.6284
vn 0.1024 -0.9435 0.3151
vn 0.1876 -0.7947 0.5773
vn 0.4713 -0.6617 0.5831
vn 0.3313 -0.9435 0.0000
vn 0.6071 -0.7947 0.0000
vn 0.7002 -0.6617 -0.2680
vn 0.1024 -0.9435 -0.3151
vn 0.1876 -0.7947 -0.5773
vn -0.0385 -0.6617 -0.7488
vn -0.2680 -0.9435 -0.1947
vn -0.4911 -0.7947 -0.3568
vn -0.7240 -0.6617 -0.1947
vn -0.8897 -0.3304 0.3151
vn -0.7947 -0.1876 0.5773
vn -0.5746 -0.3304 0.7488
vn 0.0247 -0.3304 0.9435
vn 0.3035 -0.1876 0.9342
vn 0.5346 -0.3304 0.7779
vn 0.9050 -0.3304 0.2680
vn 0.9822 -0.1876 0.0000
vn 0.9050 -0.3304 -0.2680
vn 0.5346 -0.3304 -0.7779
vn 0.3035 -0.1876 -0.9342
vn 0.0247 -0.3304 -0.9435
vn -0.5746 -0.3304 -0.7488
vn -0.7947 -0.1876 -0.5773
vn -0.8897 -0.3304 -0.3151
vn -0.3066 -0.1256 0.9435
vn -0.3035 0.1876 0.9342
vn -0.0247 0.3304 0.9435
vn 0.8026 -0.1256 0.5831
vn 0.7947 0.1876 0.5773
vn 0.8897 0.3304 0.3151
vn 0.8026 -0.1256 -0.5831
vn 0.7947 0.1876 -0.5773
vn 0.5746 0.3304 -0.7488
vn -0.3066 -0.1256 -0.9435
vn -0.3035 0.1876 -0.9342
vn -0.5346 0.3304 -0.7779
vn -0.9921 -0.1256 0.0000
vn -0.9822 0.1876 0.0000
vn -0.9050 0.3304 0.2680
vn -0.4713 0.6617 0.5831
vn -0.1876 0.7947 0.5773
vn 0.0385 0.6617 0.7488
vn 0.4089 0.6617 0.6284
vn 0.4911 0.7947 0.3568
vn 0.7240 0.6617 0.1947
vn 0.7240 0.6617 -0.1947
vn 0.4911 0.7947 -0.3568
vn 0.4089 0.6617 -0.6284
vn -0.7002 0.6617 0.2680
vn -0.6071 0.7947 0.0000
vn -0.3313 0.9435 0.0000
vn 0.0385 0.6617 -0.7488
vn -0.1876 0.7947 -0.5773
vn -0.4713 0.6617 -0.5831
usemtl None
s off
f 17/35/11 29/36/11 30/37/11
f 18/38/12 32/39/12 30/40/12
f 17/41/13 34/42/13 29/43/13
f 17/44/14 36/45/14 34/46/14
f 17/47/15 33/48/15 36/49/15
f 18/38/16 39/50/16 32/39/16
f 19/51/17 41/52/17 31/53/17
f 20/54/18 43/55/18 35/56/18
f 21/57/19 45/58/19 37/59/19
f 22/60/20 47/61/20 38/62/20
f 18/38/21 42/63/21 39/50/21
f 19/51/22 44/64/22 41/52/22
f 20/54/23 46/65/23 43/55/23
f 21/57/24 48/66/24 45/58/24
f 22/60/25 40/67/25 47/61/25
f 23/68/26 54/69/26 49/70/26
f 24/71/27 56/72/27 50/73/27
f 25/74/28 57/75/28 51/76/28
f 26/77/29 58/78/29 52/79/29
f 27/80/30 55/81/30 53/82/30
f 55/81/31 28/83/31 58/84/31
f 55/81/32 58/84/32 53/82/32
f 53/82/33 58/84/33 26/77/33
f 58/78/34 28/85/34 57/86/34
f 58/78/35 57/86/35 52/79/35
f 52/79/36 57/86/36 25/74/36
f 57/75/37 28/87/37 56/88/37
f 57/75/38 56/88/38 51/76/38
f 51/76/39 56/88/39 24/89/39
f 56/72/40 28/90/40 54/91/40
f 56/72/41 54/91/41 50/73/41
f 50/73/42 54/91/42 23/68/42
f 54/69/43 28/92/43 55/93/43
f 54/69/44 55/93/44 49/70/44
f 49/70/45 55/93/45 27/80/45
f 40/67/46 27/80/46 53/82/46
f 40/67/47 53/82/47 47/61/47
f 47/61/48 53/82/48 26/77/48
f 48/66/49 26/77/49 52/79/49
f 48/66/50 52/79/50 45/58/50
f 45/58/51 52/79/51 25/74/51
f 46/65/52 25/74/52 51/76/52
f 46/65/53 51/76/53 43/55/53
f 43/55/54 51/76/54 24/89/54
f 44/64/55 24/71/55 50/73/55
f 44/64/56 50/73/56 41/52/56
f 41/52/57 50/73/57 23/68/57
f 42/63/58 23/68/58 49/70/58
f 42/63/59 49/70/59 39/50/59
f 39/50/60 49/70/60 27/80/60
f 47/61/61 26/77/61 48/66/61
f 47/61/62 48/66/62 38/62/62
f 38/62/63 48/66/63 21/57/63
f 45/58/64 25/74/64 46/65/64
f 45/58/65 46/65/65 37/59/65
f 37/59/66 46/65/66 20/54/66
f 43/55/67 24/89/67 44/94/67
f 43/55/68 44/94/68 35/56/68
f 35/56/69 44/94/69 19/95/69
f 41/52/70 23/68/70 42/63/70
f 41/52/71 42/63/71 31/53/71
f 31/53/72 42/63/72 18/38/72
f 39/50/73 27/80/73 40/67/73
f 39/50/74 40/67/74 32/39/74
f 32/39/75 40/67/75 22/60/75
f 33/48/76 22/60/76 38/62/76
f 33/48/77 38/62/77 36/49/77
f 36/49/78 38/62/78 21/57/78
f 36/45/79 21/57/79 37/59/79
f 36/45/80 37/59/80 34/46/80
f 34/46/81 37/59/81 20/54/81
f 34/42/82 20/54/82 35/56/82
f 34/42/83 35/56/83 29/43/83
f 29/43/84 35/56/84 19/95/84
f 32/39/85 22/60/85 33/96/85
f 32/39/86 33/96/86 30/40/86
f 30/40/87 33/96/87 17/97/87
f 29/36/88 19/51/88 31/53/88
f 29/36/89 31/53/89 30/37/89
f 30/37/90 31/53/90 18/38/90
